<?xml version="1.0" standalone="no"?><!DOCTYPE svg PUBLIC "-//W3C//DTD SVG 1.1//EN" "http://www.w3.org/Graphics/SVG/1.1/DTD/svg11.dtd"><svg t="1726122967423" class="icon" viewBox="0 0 1024 1024" version="1.1" xmlns="http://www.w3.org/2000/svg" p-id="5967" xmlns:xlink="http://www.w3.org/1999/xlink" width="128" height="128"><path d="M676.416 726.442667c0-11.093333 0.042667-22.165333 0-33.258667-0.085333-17.322667-0.512-34.624-1.621333-51.925333-0.170667-2.816-0.533333-5.589333 0.064-8.384 0.576-2.602667-1.194667-4.736-1.386667-7.168-0.298667-3.392-0.469333-6.805333-0.576-10.218667-0.128-4.565333-4.8-8.512-9.237333-7.253333-21.888 6.272-44.394667 9.92-66.410667 15.68-5.824 1.514667-11.562667 3.562667-17.365333 5.098666-7.808 2.069333-15.509333 4.522667-23.381334 6.336-0.682667 0.149333-1.344 0.149333-2.005333-0.106666-2.282667-0.853333-4.181333-0.362667-5.674667 1.578666-0.554667 0.725333-1.344 0.981333-2.176 1.194667-12.330667 3.157333-24.853333 5.184-37.418666 7.146667-0.490667 0.085333-1.066667 0.213333-1.514667 0.064-4.714667-1.6-7.36 1.066667-9.728 4.544-7.637333 11.2-15.168 22.485333-23.04 33.536-12.949333 18.197333-25.173333 36.928-39.104 54.442666-20.096 25.258667-44.330667 45.525333-72.448 61.226667-6.421333 3.584-13.12 6.549333-20.544 7.530667-5.909333 0.789333-9.109333-1.856-9.450667-7.808-0.170667-2.88 0.512-5.589333 1.578667-8.234667 2.816-6.976 6.741333-13.226667 12.181333-18.432 13.248-12.693333 25.92-25.941333 38.314667-39.466667 7.061333-7.701333 14.4-15.168 21.034667-23.210666 6.293333-7.594667 11.818667-15.850667 17.514666-23.936 14.976-21.248 31.296-41.493333 46.165334-62.784 15.146667-21.674667 27.648-44.842667 36.864-69.674667 1.877333-5.077333 2.624-10.410667 2.88-15.786667 0.064-1.322667 0.682667-3.157333-0.298667-3.946666-2.133333-1.749333-3.84-4.373333-7.125333-4.352-1.536 0-3.050667-0.042667-4.565334 0.362666-22.464 5.802667-45.226667 10.24-67.861333 15.274667-7.04 1.557333-13.973333 1.770667-20.992-0.149333-4.736-1.301333-7.786667 0.256-9.578667 4.821333-7.189333 18.325333-14.997333 36.416-21.717333 54.933333-5.76 15.893333-13.376 30.954667-21.589333 45.717334-5.781333 10.389333-11.221333 20.992-17.450667 31.146666-5.781333 9.472-11.626667 18.88-18.325333 27.754667-6.698667 8.874667-11.626667 18.624-14.997334 29.226667-2.304 7.232-4.864 14.4-9.514666 20.565333-5.482667 7.253333-12.928 9.834667-21.653334 8.490667-8.341333-1.301333-15.509333-9.386667-15.637333-17.877334-0.192-13.290667 0.426667-26.538667 2.730667-39.722666 0.896-5.12 1.664-10.24 3.264-15.189334 0.768-2.368 1.92-4.544 3.178666-6.677333 1.941333-3.242667 4.608-5.354667 8.362667-6.186667 2.325333-0.512 4.629333-1.194667 6.848-2.026666 3.818667-1.429333 7.232-3.605333 9.365333-7.210667 13.077333-22.165333 29.653333-41.92 43.818667-63.317333 9.152-13.824 19.050667-27.072 29.952-39.552 7.189333-8.234667 14.890667-15.936 22.677333-23.594667 1.941333-1.898667 3.093333-4.629333 4.501334-7.04 0.725333-1.28 1.450667-2.261333 3.136-1.984 1.237333 0.213333 1.536-0.576 1.258666-1.536-0.853333-3.029333-0.384-6.101333-0.384-9.130667 0-3.669333 3.2-6.805333 6.848-6.677333 2.709333 0.106667 4.821333-1.322667 7.232-2.026667 2.752-0.789333 5.610667-0.981333 8.426667-1.429333 12.821333-2.026667 25.024-6.549333 37.589333-9.6 19.882667-4.821333 39.658667-10.005333 59.264-15.850667 2.645333-0.789333 5.312-1.642667 8.256-1.024 1.792 0.384 3.413333-0.810667 4.202667-2.410666 5.418667-11.136 10.730667-22.357333 11.477333-34.986667 0.426667-7.381333-2.325333-9.621333-9.408-7.808-11.093333 2.816-21.952 2.410667-32.64-1.770667-2.901333-1.130667-5.568-2.581333-7.68-4.928-2.410667-2.666667-2.645333-5.013333-0.725333-8.106666 2.432-3.946667 6.144-6.357333 10.176-8.298667 5.482667-2.624 11.264-4.842667 17.173333-5.674667 4.522667-0.64 8.064-3.264 12.394667-4.074666 4.416-0.810667 8.64-2.581333 12.949333-3.925334 6.336-1.984 9.898667-6.464 12.501334-12.096 4.266667-9.237333 7.509333-18.837333 9.514666-28.821333 1.258667-6.208-1.642667-9.770667-7.893333-9.152-8.746667 0.853333-17.450667 2.005333-26.176 2.858667-8.746667 0.832-17.514667 1.365333-26.282667 0.362666-2.304-0.256-4.437333-1.152-6.4-2.432-1.792-1.152-2.005333-2.56-1.002666-4.352 1.322667-2.389333 3.349333-3.776 5.909333-4.565333 10.837333-3.349333 21.802667-6.229333 32.896-8.597333 6.570667-1.408 13.269333-2.24 19.754667-4.138667 7.104-2.069333 11.776-6.421333 14.186666-13.461333 5.056-14.848 7.893333-30.165333 9.706667-45.696 1.002667-8.64 2.069333-17.28 1.962667-26.005334-0.021333-2.304-0.234667-4.608-0.597334-6.869333-0.661333-4.010667-2.090667-7.68-5.205333-10.56-1.92-1.792-3.584-3.904-5.354667-5.845333-4.992-5.482667-7.061333-11.925333-6.592-19.285334 0.106667-1.834667 0.874667-2.986667 2.453334-3.818666 2.837333-1.493333 5.845333-2.069333 8.917333-1.344 14.464 3.370667 28.138667 8.768 40.746667 16.682666 5.226667 3.285333 9.109333 7.637333 9.813333 14.208 0.384 3.648-0.384 7.082667-2.965333 9.429334-7.104 6.485333-8.277333 15.018667-8.938667 23.765333-0.938667 12.330667-1.984 24.64-3.882667 36.864-1.088 6.912 2.837333 10.474667 9.493334 8.128 8.341333-2.944 16.896-4.714667 25.664-5.653333 16.490667-1.728 32.96-3.178667 49.152 2.24 6.186667 2.069333 11.498667 5.12 15.146666 10.688 2.581333 3.946667 1.685333 8.106667-2.410666 10.304-7.125333 3.797333-14.613333 6.058667-22.698667 7.253333-21.888 3.2-44.16 3.477333-65.685333 9.493333-7.594667 2.112-11.989333 6.144-13.482667 13.781334-1.408 7.232-1.664 14.570667-2.538667 21.824-0.234667 1.941333-0.490667 3.882667-0.874666 5.802666-0.384 1.962667-0.341333 3.754667 1.237333 5.184 1.557333 1.408 3.285333 1.216 5.269333 0.810667 21.482667-4.629333 42.304-12.181333 64.149334-15.146667 10.410667-1.408 20.842667-0.256 30.528 4.309334 7.68 3.626667 12.437333 9.877333 14.976 17.898666 0.469333 1.472 0.32 2.645333-0.96 3.626667-0.682667 0.512-1.322667 1.173333-1.493334 2.005333-1.130667 5.269333-5.205333 6.250667-9.642666 6.528-5.141333 0.32-10.218667-0.618667-15.296-1.130666-19.477333-2.005333-38.634667-0.085333-57.685334 3.989333-11.946667 2.56-23.616 5.994667-35.285333 9.536-5.248 1.6-7.210667 5.866667-8.682667 10.282667-2.496 7.509333-4.437333 15.210667-6.656 22.826666-0.746667 2.538667-1.664 5.013333-2.474666 7.530667-1.621333 5.077333 1.045333 8.96 6.378666 9.045333 5.397333 0.085333 10.624-1.429333 15.936-2.176 15.018667-2.112 30.058667-4.181333 45.034667-6.549333 11.861333-1.856 23.658667-4.245333 35.52-6.165333 11.797333-1.898667 23.68-2.837333 35.605333-3.626667 20.266667-1.322667 40.576-1.408 60.864-1.877333 4.693333-0.106667 9.386667 0.256 14.016 0.96 9.429333 1.408 16.298667 6.784 21.290667 14.549333 1.642667 2.56 1.237333 5.952-0.512 8.725333-1.301333 2.069333-2.752 4.074667-4.394667 5.888-4.138667 4.544-9.301333 7.146667-15.466666 7.658667-3.541333 0.298667-6.933333 1.450667-10.496 1.685333-4.906667 0.32-9.834667 1.258667-14.357334-1.493333-1.152-0.704-2.282667-0.213333-3.413333-0.234667-3.050667-0.064-6.208-0.618667-9.088-0.234666-2.858667 0.405333-5.696 0.789333-8.554667 0.704-19.690667-0.682667-39.36 0.384-59.029333 1.002666-11.818667 0.384-23.594667 2.026667-35.264 4.138667-29.952 5.461333-59.498667 12.714667-88.917333 20.522667-2.538667 0.682667-3.925333 1.621333-4.309334 4.437333-3.52 25.536-16.64 46.976-29.376 68.586667-1.301333 2.197333-2.709333 4.330667-3.968 6.570666-1.066667 1.877333-1.578667 3.946667-1.493333 6.144 0.170667 3.925333 2.773333 6.570667 6.698667 6.570667 4.224-0.021333 8.213333-1.450667 12.266666-2.368 26.154667-5.866667 51.626667-14.08 77.205334-21.973333 10.88-3.349333 21.973333-5.482667 33.322666-6.485334 2.624-0.234667 5.248-0.746667 7.808-1.365333 5.973333-1.450667 8.725333-4.864 8.554667-10.986667-0.277333-9.450667-0.853333-18.901333-2.816-28.202666-0.746667-3.498667-2.154667-6.613333-4.181333-9.514667-1.664-2.389333-3.392-4.714667-4.8-7.253333-4.885333-8.789333-0.832-15.914667 9.28-16.362667 8.533333-0.384 16.405333 1.92 23.552 6.485333 6.122667 3.904 11.669333 8.576 16.938666 13.610667 4.288 4.096 5.76 8.832 4.266667 14.634667-0.938667 3.584-1.941333 7.061333-4.138667 10.112-0.554667 0.746667-0.981333 1.6-1.365333 2.453333-2.069333 4.650667 0.341333 8.917333 5.418667 9.514667 1.258667 0.149333 2.56 0.128 3.84 0.106666 17.664-0.362667 35.264-1.6 52.864-2.88 14.378667-1.045333 28.8-1.6 43.029333 1.770667 3.370667 0.789333 6.485333 2.090667 9.216 4.245333 4.757333 3.733333 6.122667 8.682667 4.864 14.378667-0.917333 4.096-2.666667 7.914667-4.842667 11.498667-3.605333 5.930667-9.194667 8.384-15.829333 8.021333-18.986667-1.024-37.973333-2.154667-56.938667-3.541333-9.557333-0.704-19.050667-0.981333-28.586666 0.106666-6.784 0.768-10.410667 4.565333-10.709334 11.413334-1.088 25.472 0.405333 50.794667 4.437334 75.968 1.429333 8.917333 2.538667 17.898667 3.605333 26.858666 0.384 3.2-0.021333 6.464 0.234667 9.706667 0.789333 9.984 0.896 19.946667 0.661333 29.994667-0.170667 7.893333-0.106667 15.829333-0.32 23.744-0.362667 14.122667-0.746667 28.288-2.581333 42.304-2.88 22.058667-6.784 43.968-13.696 65.194666-2.304 7.082667-5.290667 13.866667-9.642667 19.968-3.861333 5.397333-8.704 9.386667-15.594667 10.112-5.376 0.576-10.282667-1.024-14.954666-3.52-7.829333-4.181333-14.378667-10.069333-20.864-15.978666-5.162667-4.693333-10.368-9.386667-14.165334-15.36-0.256-0.405333-0.810667-0.597333-1.194666-0.917334-2.112-1.642667-3.946667-3.498667-4.736-6.165333-0.341333-1.152-0.917333-2.282667-1.877334-2.965333-2.453333-1.706667-3.605333-4.266667-4.629333-6.890667-1.536-3.882667-3.072-7.786667-4.096-11.84-1.088-4.352-0.554667-8.341333 3.157333-11.370667 3.52-2.88 7.381333-2.474667 11.072-0.661333 7.253333 3.605333 13.461333 8.661333 18.88 14.656 1.536 1.706667 2.944 3.562667 4.778667 4.970667 5.354667 4.16 10.88 2.773333 13.376-3.52 1.365333-3.477333 2.410667-7.104 3.392-10.730667 3.712-13.568 7.808-27.029333 9.770667-41.002667 0.981333-7.04 1.109333-14.122667 1.173333-21.184 0.149333-17.92 0.042667-35.84 0.042667-53.76-0.149333-0.042667-0.298667-0.042667-0.426667-0.042666z" p-id="5968"></path><path d="M582.506667 752.128c-6.229333 0.533333-11.136-2.176-14.250667-7.232-1.685333-2.730667-2.645333-6.037333-3.925333-9.109333-0.512-1.237333-1.130667-2.496-1.770667-3.541334-4.288-6.933333-3.648-15.125333-6.016-22.528-0.512-1.578667-0.789333-3.221333-1.514667-4.757333-2.346667-4.949333-3.157333-10.368-4.416-15.616-0.981333-4.117333-3.882667-6.741333-5.845333-10.090667-2.261333-3.861333-6.250667-6.144-9.301333-9.301333-2.005333-2.069333-2.901333-4.501333-3.008-7.232-0.128-3.050667-0.064-6.08 0.469333-9.109333 0.768-4.394667 6.656-9.472 11.093333-9.536 8.426667-0.149333 15.488 2.944 21.418667 8.832 2.368 2.346667 4.608 4.8 7.082667 7.04 16.746667 15.232 25.706667 34.752 31.04 56.256 1.344 5.418667 2.858667 10.858667 2.133333 16.618666-0.832 6.613333-3.690667 12.181333-9.002667 16.042667-3.072 2.24-7.061333 2.88-10.901333 3.242667-1.066667 0.106667-2.176 0.021333-3.285333 0.021333zM254.634667 463.381333c9.472 0.405333 18.538667 2.688 27.264 6.250667 7.509333 3.050667 14.954667 6.208 22.357333 9.536 8.426667 3.776 15.402667 9.344 20.330667 17.344 2.773333 4.501333 3.690667 9.066667 1.621333 14.101333-1.130667 2.752-1.962667 5.632-3.456 8.234667-4.693333 8.192-13.162667 10.410667-21.226667 5.546667-0.874667-0.533333-1.749333-1.088-2.517333-1.749334-13.781333-11.605333-29.312-20.522667-45.034667-29.162666-5.184-2.858667-9.173333-6.762667-11.669333-12.138667-0.682667-1.450667-1.408-3.029333-1.536-4.586667-0.725333-9.792 1.493333-12.501333 10.517333-13.354666 1.130667-0.128 2.24-0.021333 3.349334-0.021334zM330.901333 310.4c7.936-0.234667 14.912 2.069333 20.970667 7.296 7.36 6.336 15.125333 12.202667 22.208 18.901333 11.968 11.349333 13.994667 32.128 0.512 46.549334-4.501333 4.8-10.858667 5.44-16.448 1.941333-5.141333-3.221333-8.938667-7.530667-11.306667-13.162667-2.133333-5.12-4.373333-10.218667-5.674666-15.594666-1.984-8.341333-6.378667-15.146667-12.330667-21.12-3.626667-3.626667-6.976-7.488-10.048-11.584-1.792-2.410667-3.221333-4.992-4.16-7.872-0.533333-1.6-0.192-2.453333 1.450667-3.114667 4.8-1.898667 9.834667-1.962667 14.826666-2.24z" p-id="5969"></path></svg>